<?xml version="1.0" encoding="UTF-8"?>
<svg xmlns="http://www.w3.org/2000/svg" xmlns:xlink="http://www.w3.org/1999/xlink" width="48px" height="48px" viewBox="0 0 48 48" version="1.1">
<g id="surface1">
<path style=" stroke:none;fill-rule:nonzero;fill:rgb(49.803922%,70.19608%,98.039216%);fill-opacity:1;" d="M 44.980469 38.109375 L 36.507812 29.636719 C 36.0625 29.191406 35.449219 28.953125 34.820312 28.984375 C 34.191406 29.011719 33.605469 29.304688 33.203125 29.789062 L 28.082031 35.960938 C 24.554688 34.359375 21.355469 32.121094 18.648438 29.351562 C 15.878906 26.644531 13.640625 23.445312 12.039062 19.917969 L 18.210938 14.796875 C 18.695312 14.394531 18.988281 13.808594 19.015625 13.179688 C 19.046875 12.550781 18.808594 11.9375 18.363281 11.492188 L 9.890625 3.019531 C 9.445312 2.574219 8.832031 2.339844 8.203125 2.367188 C 7.574219 2.398438 6.988281 2.6875 6.585938 3.171875 L 3.972656 6.324219 C 3.105469 7.363281 2.574219 8.640625 2.453125 9.988281 C 2.0625 14.394531 2.550781 24.648438 12.953125 35.046875 C 23.355469 45.449219 33.605469 45.9375 38.015625 45.546875 C 39.363281 45.425781 40.640625 44.894531 41.679688 44.027344 L 44.828125 41.414062 C 45.3125 41.011719 45.605469 40.425781 45.632812 39.796875 C 45.664062 39.167969 45.425781 38.554688 44.980469 38.109375 Z M 44.980469 38.109375 "/>
<path style=" stroke:none;fill-rule:nonzero;fill:rgb(49.803922%,70.19608%,98.039216%);fill-opacity:1;" d="M 41.90625 23.199219 C 41.734375 23.199219 41.566406 23.128906 41.441406 23.003906 C 41.320312 22.882812 41.25 22.714844 41.25 22.542969 C 41.238281 13.824219 34.175781 6.761719 25.457031 6.75 C 25.097656 6.75 24.800781 6.457031 24.800781 6.09375 C 24.800781 5.730469 25.097656 5.4375 25.457031 5.4375 C 34.898438 5.449219 42.550781 13.101562 42.5625 22.542969 C 42.5625 22.902344 42.269531 23.199219 41.90625 23.199219 Z M 41.90625 23.199219 "/>
<path style=" stroke:none;fill-rule:nonzero;fill:rgb(49.803922%,70.19608%,98.039216%);fill-opacity:1;" d="M 38.039062 23.199219 C 37.679688 23.199219 37.382812 22.902344 37.382812 22.542969 C 37.375 15.957031 32.042969 10.625 25.460938 10.617188 C 25.097656 10.617188 24.804688 10.324219 24.804688 9.960938 C 24.804688 9.597656 25.097656 9.304688 25.460938 9.304688 C 32.765625 9.3125 38.6875 15.234375 38.695312 22.542969 C 38.695312 22.714844 38.628906 22.882812 38.503906 23.003906 C 38.382812 23.128906 38.214844 23.199219 38.039062 23.199219 Z M 38.039062 23.199219 "/>
<path style=" stroke:none;fill-rule:nonzero;fill:rgb(49.803922%,70.19608%,98.039216%);fill-opacity:1;" d="M 34.175781 23.199219 C 34 23.199219 33.832031 23.128906 33.710938 23.003906 C 33.585938 22.882812 33.519531 22.714844 33.519531 22.542969 C 33.511719 18.09375 29.90625 14.488281 25.457031 14.480469 C 25.097656 14.480469 24.800781 14.1875 24.800781 13.824219 C 24.800781 13.464844 25.097656 13.167969 25.457031 13.167969 C 30.632812 13.175781 34.824219 17.367188 34.832031 22.542969 C 34.832031 22.714844 34.761719 22.882812 34.636719 23.003906 C 34.515625 23.128906 34.347656 23.199219 34.175781 23.199219 Z M 34.175781 23.199219 "/>
</g>
</svg>
